<?xml version="1.0" standalone="no"?>
<svg xmlns:xlink="http://www.w3.org/1999/xlink" id="wave" style="transform:rotate(180deg); transition: 0.3s" viewBox="0 0 1440 130" version="1.1" xmlns="http://www.w3.org/2000/svg"><defs><linearGradient id="sw-gradient-0" x1="0" x2="0" y1="1" y2="0"><stop stop-color="rgba(80, 80, 80, 1)" offset="0%"/><stop stop-color="rgba(25.4, 25.4, 25.4, 1)" offset="100%"/></linearGradient></defs><path style="transform:translate(0, 0px); opacity:1" fill="url(#sw-gradient-0)" d="M0,0L34.3,2.2C68.6,4,137,9,206,8.7C274.3,9,343,4,411,17.3C480,30,549,61,617,65C685.7,69,754,48,823,36.8C891.4,26,960,26,1029,21.7C1097.1,17,1166,9,1234,4.3C1302.9,0,1371,0,1440,8.7C1508.6,17,1577,35,1646,39C1714.3,43,1783,35,1851,43.3C1920,52,1989,78,2057,82.3C2125.7,87,2194,69,2263,69.3C2331.4,69,2400,87,2469,84.5C2537.1,82,2606,61,2674,45.5C2742.9,30,2811,22,2880,17.3C2948.6,13,3017,13,3086,28.2C3154.3,43,3223,74,3291,73.7C3360,74,3429,43,3497,41.2C3565.7,39,3634,65,3703,80.2C3771.4,95,3840,100,3909,86.7C3977.1,74,4046,43,4114,36.8C4182.9,30,4251,48,4320,65C4388.6,82,4457,100,4526,104C4594.3,108,4663,100,4731,84.5C4800,69,4869,48,4903,36.8L4937.1,26L4937.1,130L4902.9,130C4868.6,130,4800,130,4731,130C4662.9,130,4594,130,4526,130C4457.1,130,4389,130,4320,130C4251.4,130,4183,130,4114,130C4045.7,130,3977,130,3909,130C3840,130,3771,130,3703,130C3634.3,130,3566,130,3497,130C3428.6,130,3360,130,3291,130C3222.9,130,3154,130,3086,130C3017.1,130,2949,130,2880,130C2811.4,130,2743,130,2674,130C2605.7,130,2537,130,2469,130C2400,130,2331,130,2263,130C2194.3,130,2126,130,2057,130C1988.6,130,1920,130,1851,130C1782.9,130,1714,130,1646,130C1577.1,130,1509,130,1440,130C1371.4,130,1303,130,1234,130C1165.7,130,1097,130,1029,130C960,130,891,130,823,130C754.3,130,686,130,617,130C548.6,130,480,130,411,130C342.9,130,274,130,206,130C137.1,130,69,130,34,130L0,130Z"/><defs><linearGradient id="sw-gradient-1" x1="0" x2="0" y1="1" y2="0"><stop stop-color="rgba(255, 255, 255, 1)" offset="0%"/><stop stop-color="rgba(255, 255, 255, 1)" offset="100%"/></linearGradient></defs><path style="transform:translate(0, 50px); opacity:1" fill="url(#sw-gradient-1)" d="M0,39L34.3,45.5C68.6,52,137,65,206,58.5C274.3,52,343,26,411,17.3C480,9,549,17,617,21.7C685.7,26,754,26,823,21.7C891.4,17,960,9,1029,15.2C1097.1,22,1166,43,1234,52C1302.9,61,1371,56,1440,65C1508.6,74,1577,95,1646,88.8C1714.3,82,1783,48,1851,39C1920,30,1989,48,2057,54.2C2125.7,61,2194,56,2263,52C2331.4,48,2400,43,2469,52C2537.1,61,2606,82,2674,80.2C2742.9,78,2811,52,2880,39C2948.6,26,3017,26,3086,30.3C3154.3,35,3223,43,3291,52C3360,61,3429,69,3497,62.8C3565.7,56,3634,35,3703,30.3C3771.4,26,3840,39,3909,45.5C3977.1,52,4046,52,4114,60.7C4182.9,69,4251,87,4320,78C4388.6,69,4457,35,4526,19.5C4594.3,4,4663,9,4731,21.7C4800,35,4869,56,4903,67.2L4937.1,78L4937.1,130L4902.9,130C4868.6,130,4800,130,4731,130C4662.9,130,4594,130,4526,130C4457.1,130,4389,130,4320,130C4251.4,130,4183,130,4114,130C4045.7,130,3977,130,3909,130C3840,130,3771,130,3703,130C3634.3,130,3566,130,3497,130C3428.6,130,3360,130,3291,130C3222.9,130,3154,130,3086,130C3017.1,130,2949,130,2880,130C2811.4,130,2743,130,2674,130C2605.7,130,2537,130,2469,130C2400,130,2331,130,2263,130C2194.3,130,2126,130,2057,130C1988.6,130,1920,130,1851,130C1782.9,130,1714,130,1646,130C1577.1,130,1509,130,1440,130C1371.4,130,1303,130,1234,130C1165.7,130,1097,130,1029,130C960,130,891,130,823,130C754.3,130,686,130,617,130C548.6,130,480,130,411,130C342.9,130,274,130,206,130C137.1,130,69,130,34,130L0,130Z"/></svg>