<?xml version="1.0" standalone="no"?>
<svg xmlns:xlink="http://www.w3.org/1999/xlink" id="wave" style="transform:rotate(0deg); transition: 0.3s" viewBox="0 0 1440 140" version="1.1" xmlns="http://www.w3.org/2000/svg"><defs><linearGradient id="sw-gradient-0" x1="0" x2="0" y1="1" y2="0"><stop stop-color="rgba(80, 80, 80, 1)" offset="0%"/><stop stop-color="rgba(25.4, 25.4, 25.4, 1)" offset="100%"/></linearGradient></defs><path style="transform:translate(0, 0px); opacity:1" fill="url(#sw-gradient-0)" d="M0,42L34.3,35C68.6,28,137,14,206,11.7C274.3,9,343,19,411,35C480,51,549,75,617,86.3C685.7,98,754,98,823,93.3C891.4,89,960,79,1029,77C1097.1,75,1166,79,1234,79.3C1302.9,79,1371,75,1440,60.7C1508.6,47,1577,23,1646,25.7C1714.3,28,1783,56,1851,65.3C1920,75,1989,65,2057,67.7C2125.7,70,2194,84,2263,84C2331.4,84,2400,70,2469,65.3C2537.1,61,2606,65,2674,56C2742.9,47,2811,23,2880,25.7C2948.6,28,3017,56,3086,65.3C3154.3,75,3223,65,3291,72.3C3360,79,3429,103,3497,105C3565.7,107,3634,89,3703,70C3771.4,51,3840,33,3909,25.7C3977.1,19,4046,23,4114,42C4182.9,61,4251,93,4320,105C4388.6,117,4457,107,4526,91C4594.3,75,4663,51,4731,53.7C4800,56,4869,84,4903,98L4937.1,112L4937.1,140L4902.9,140C4868.6,140,4800,140,4731,140C4662.9,140,4594,140,4526,140C4457.1,140,4389,140,4320,140C4251.4,140,4183,140,4114,140C4045.7,140,3977,140,3909,140C3840,140,3771,140,3703,140C3634.3,140,3566,140,3497,140C3428.6,140,3360,140,3291,140C3222.9,140,3154,140,3086,140C3017.1,140,2949,140,2880,140C2811.4,140,2743,140,2674,140C2605.7,140,2537,140,2469,140C2400,140,2331,140,2263,140C2194.3,140,2126,140,2057,140C1988.6,140,1920,140,1851,140C1782.9,140,1714,140,1646,140C1577.1,140,1509,140,1440,140C1371.4,140,1303,140,1234,140C1165.7,140,1097,140,1029,140C960,140,891,140,823,140C754.3,140,686,140,617,140C548.6,140,480,140,411,140C342.9,140,274,140,206,140C137.1,140,69,140,34,140L0,140Z"/><defs><linearGradient id="sw-gradient-1" x1="0" x2="0" y1="1" y2="0"><stop stop-color="rgba(255, 255, 255, 1)" offset="0%"/><stop stop-color="rgba(255, 255, 255, 1)" offset="100%"/></linearGradient></defs><path style="transform:translate(0, 50px); opacity:1" fill="url(#sw-gradient-1)" d="M0,42L34.3,46.7C68.6,51,137,61,206,56C274.3,51,343,33,411,39.7C480,47,549,79,617,77C685.7,75,754,37,823,28C891.4,19,960,37,1029,51.3C1097.1,65,1166,75,1234,81.7C1302.9,89,1371,93,1440,86.3C1508.6,79,1577,61,1646,58.3C1714.3,56,1783,70,1851,74.7C1920,79,1989,75,2057,70C2125.7,65,2194,61,2263,60.7C2331.4,61,2400,65,2469,65.3C2537.1,65,2606,61,2674,53.7C2742.9,47,2811,37,2880,46.7C2948.6,56,3017,84,3086,79.3C3154.3,75,3223,37,3291,39.7C3360,42,3429,84,3497,98C3565.7,112,3634,98,3703,79.3C3771.4,61,3840,37,3909,25.7C3977.1,14,4046,14,4114,16.3C4182.9,19,4251,23,4320,23.3C4388.6,23,4457,19,4526,18.7C4594.3,19,4663,23,4731,21C4800,19,4869,9,4903,4.7L4937.1,0L4937.1,140L4902.9,140C4868.6,140,4800,140,4731,140C4662.9,140,4594,140,4526,140C4457.1,140,4389,140,4320,140C4251.4,140,4183,140,4114,140C4045.7,140,3977,140,3909,140C3840,140,3771,140,3703,140C3634.3,140,3566,140,3497,140C3428.6,140,3360,140,3291,140C3222.9,140,3154,140,3086,140C3017.1,140,2949,140,2880,140C2811.4,140,2743,140,2674,140C2605.7,140,2537,140,2469,140C2400,140,2331,140,2263,140C2194.3,140,2126,140,2057,140C1988.6,140,1920,140,1851,140C1782.9,140,1714,140,1646,140C1577.1,140,1509,140,1440,140C1371.4,140,1303,140,1234,140C1165.7,140,1097,140,1029,140C960,140,891,140,823,140C754.3,140,686,140,617,140C548.6,140,480,140,411,140C342.9,140,274,140,206,140C137.1,140,69,140,34,140L0,140Z"/></svg>