<?xml version="1.0" standalone="no"?>
<svg xmlns:xlink="http://www.w3.org/1999/xlink" id="wave" style="transform:rotate(180deg); transition: 0.3s" viewBox="0 0 1440 150" version="1.1" xmlns="http://www.w3.org/2000/svg"><defs><linearGradient id="sw-gradient-0" x1="0" x2="0" y1="1" y2="0"><stop stop-color="rgba(7, 106, 165, 1)" offset="0%"/><stop stop-color="rgba(39, 150, 202, 1)" offset="100%"/></linearGradient></defs><path style="transform:translate(0, 0px); opacity:1" fill="url(#sw-gradient-0)" d="M0,75L40,72.5C80,70,160,65,240,70C320,75,400,90,480,87.5C560,85,640,65,720,62.5C800,60,880,75,960,77.5C1040,80,1120,70,1200,77.5C1280,85,1360,110,1440,122.5C1520,135,1600,135,1680,125C1760,115,1840,95,1920,85C2000,75,2080,75,2160,77.5C2240,80,2320,85,2400,92.5C2480,100,2560,110,2640,105C2720,100,2800,80,2880,70C2960,60,3040,60,3120,60C3200,60,3280,60,3360,70C3440,80,3520,100,3600,97.5C3680,95,3760,70,3840,50C3920,30,4000,15,4080,30C4160,45,4240,90,4320,102.5C4400,115,4480,95,4560,77.5C4640,60,4720,45,4800,45C4880,45,4960,60,5040,70C5120,80,5200,85,5280,92.5C5360,100,5440,110,5520,97.5C5600,85,5680,50,5720,32.5L5760,15L5760,150L5720,150C5680,150,5600,150,5520,150C5440,150,5360,150,5280,150C5200,150,5120,150,5040,150C4960,150,4880,150,4800,150C4720,150,4640,150,4560,150C4480,150,4400,150,4320,150C4240,150,4160,150,4080,150C4000,150,3920,150,3840,150C3760,150,3680,150,3600,150C3520,150,3440,150,3360,150C3280,150,3200,150,3120,150C3040,150,2960,150,2880,150C2800,150,2720,150,2640,150C2560,150,2480,150,2400,150C2320,150,2240,150,2160,150C2080,150,2000,150,1920,150C1840,150,1760,150,1680,150C1600,150,1520,150,1440,150C1360,150,1280,150,1200,150C1120,150,1040,150,960,150C880,150,800,150,720,150C640,150,560,150,480,150C400,150,320,150,240,150C160,150,80,150,40,150L0,150Z"/><defs><linearGradient id="sw-gradient-1" x1="0" x2="0" y1="1" y2="0"><stop stop-color="rgba(39, 150, 202, 1)" offset="0%"/><stop stop-color="rgba(39, 150, 202, 1)" offset="100%"/></linearGradient></defs><path style="transform:translate(0, 50px); opacity:1" fill="url(#sw-gradient-1)" d="M0,15L40,12.5C80,10,160,5,240,17.5C320,30,400,60,480,60C560,60,640,30,720,32.5C800,35,880,70,960,82.5C1040,95,1120,85,1200,80C1280,75,1360,75,1440,75C1520,75,1600,75,1680,67.5C1760,60,1840,45,1920,42.5C2000,40,2080,50,2160,57.5C2240,65,2320,70,2400,70C2480,70,2560,65,2640,55C2720,45,2800,30,2880,32.5C2960,35,3040,55,3120,67.5C3200,80,3280,85,3360,90C3440,95,3520,100,3600,105C3680,110,3760,115,3840,100C3920,85,4000,50,4080,40C4160,30,4240,45,4320,45C4400,45,4480,30,4560,20C4640,10,4720,5,4800,20C4880,35,4960,70,5040,90C5120,110,5200,115,5280,102.5C5360,90,5440,60,5520,57.5C5600,55,5680,80,5720,92.5L5760,105L5760,150L5720,150C5680,150,5600,150,5520,150C5440,150,5360,150,5280,150C5200,150,5120,150,5040,150C4960,150,4880,150,4800,150C4720,150,4640,150,4560,150C4480,150,4400,150,4320,150C4240,150,4160,150,4080,150C4000,150,3920,150,3840,150C3760,150,3680,150,3600,150C3520,150,3440,150,3360,150C3280,150,3200,150,3120,150C3040,150,2960,150,2880,150C2800,150,2720,150,2640,150C2560,150,2480,150,2400,150C2320,150,2240,150,2160,150C2080,150,2000,150,1920,150C1840,150,1760,150,1680,150C1600,150,1520,150,1440,150C1360,150,1280,150,1200,150C1120,150,1040,150,960,150C880,150,800,150,720,150C640,150,560,150,480,150C400,150,320,150,240,150C160,150,80,150,40,150L0,150Z"/></svg>